<svg width="0" height="0" class="hidden">
  <symbol t="1660349574614" version="1.1" xmlns="http://www.w3.org/2000/svg" pId="2392" xmlns:xlink="http://www.w3.org/1999/xlink" viewBox="0 0 1024 1024" id="添加_填充">
    <defs></defs>
    <path d="M514.972672 25.220096c-261.41696 0-473.339904 211.922944-473.339904 473.339904 0 261.424128 211.922944 473.344 473.339904 473.344 261.419008 0 473.34912-211.919872 473.34912-473.344C988.321792 237.14304 776.39168 25.220096 514.972672 25.220096zM810.990592 516.393984l-277.533696 0.64-0.584704 278.121472c-0.039936 10.202112-8.31488 18.477056-18.516992 18.477056l-0.039936 0c-10.202112-0.039936-18.477056-8.31488-18.477056-18.556928l0.582656-277.955584-277.376 0.64-0.039936 0c-10.202112 0-18.477056-8.274944-18.516992-18.477056 0-10.202112 8.233984-18.516992 18.477056-18.556928l277.533696-0.64 0.584704-278.121472c0.039936-10.202112 8.31488-18.477056 18.516992-18.477056l0.039936 0c10.202112 0.039936 18.477056 8.31488 18.477056 18.556928L533.53472 480l277.376-0.64 0.039936 0c10.202112 0 18.477056 8.274944 18.516992 18.477056C829.467648 508.039168 821.233664 516.353024 810.990592 516.393984z" pId="2393"></path>
  </symbol>
  <symbol t="1660206289470" version="1.1" xmlns="http://www.w3.org/2000/svg" pId="5695" xmlns:xlink="http://www.w3.org/1999/xlink" viewBox="0 0 1024 1024" id="文件">
    <defs></defs>
    <path d="M313.0368 429.40416h399.36v40.96h-399.36zM313.0368 618.86464h399.36v40.96h-399.36z" fill="" pId="5696"></path>
    <path d="M816.20992 823.86944H209.26464V200.13056h478.35136l128.57344 134.22592v489.51296z m-565.98528-40.96h525.02528V350.8224l-105.10336-109.73184H250.22464v541.81888z" fill="" pId="5697"></path>
  </symbol>
  <symbol t="1660205836775" version="1.1" xmlns="http://www.w3.org/2000/svg" pId="2336" xmlns:xlink="http://www.w3.org/1999/xlink" viewBox="0 0 1024 1024" id="文件夹">
    <defs></defs>
    <path d="M912 208H427.872l-50.368-94.176A63.936 63.936 0 0 0 321.056 80H112c-35.296 0-64 28.704-64 64v736c0 35.296 28.704 64 64 64h800c35.296 0 64-28.704 64-64v-608c0-35.296-28.704-64-64-64z m-800-64h209.056l68.448 128H912v97.984c-0.416 0-0.8-0.128-1.216-0.128H113.248c-0.416 0-0.8 0.128-1.248 0.128V144z m0 736v-96l1.248-350.144 798.752 1.216V784h0.064v96H112z" pId="2337"></path>
  </symbol>
  <symbol t="1660196658967" version="1.1" xmlns="http://www.w3.org/2000/svg" pId="5428" xmlns:xlink="http://www.w3.org/1999/xlink" viewBox="0 0 1024 1024" id="编辑">
    <defs></defs>
    <path d="M928 365.664a32 32 0 0 0-32 32V864a32 32 0 0 1-32 32H160a32 32 0 0 1-32-32V160a32 32 0 0 1 32-32h429.6a32 32 0 0 0 0-64H160a96 96 0 0 0-96 96v704a96 96 0 0 0 96 96h704a96 96 0 0 0 96-96V397.664a32 32 0 0 0-32-32z" fill="" pId="5429"></path>
    <path d="M231.616 696.416a38.4 38.4 0 0 0 44.256 53.792l148-38.368L950.496 185.248 814.72 49.472 290.432 573.76l-58.816 122.656z m111.808-85.12L814.72 140l45.248 45.248-468.992 468.992-77.824 20.16 30.272-63.104z" fill="" pId="5430"></path>
  </symbol>
  <symbol t="1660196627309" version="1.1" xmlns="http://www.w3.org/2000/svg" pId="4500" xmlns:xlink="http://www.w3.org/1999/xlink" viewBox="0 0 1024 1024" id="完成">
    <defs></defs>
    <path d="M511.082 36.049c-263.069 0-476.33 212.903-476.33 475.534s213.261 475.534 476.33 475.534c263.073 0 476.33-212.903 476.33-475.534 0-262.63-213.255-475.534-476.33-475.534zM772.988 397.6l-306.63 313.276c-14.106 14.413-36.99 14.413-51.094 0l-166.087-169.696c-14.115-14.414-14.115-37.788 0-52.206 14.105-14.419 36.99-14.419 51.094 0l140.541 143.585 281.072-287.169c14.115-14.418 37.001-14.418 51.105 0 14.115 14.417 14.115 37.792 0 52.21z" pId="4501"></path>
  </symbol>
  <symbol t="1660196591407" version="1.1" xmlns="http://www.w3.org/2000/svg" pId="3319" xmlns:xlink="http://www.w3.org/1999/xlink" viewBox="0 0 1024 1024" id="错误">
    <defs></defs>
    <path d="M886.784 746.496q29.696 30.72 43.52 56.32t-4.608 58.368q-4.096 6.144-11.264 14.848t-14.848 16.896-15.36 14.848-12.8 9.728q-25.6 15.36-60.416 8.192t-62.464-34.816l-43.008-43.008-57.344-57.344-67.584-67.584-73.728-73.728-131.072 131.072q-60.416 60.416-98.304 99.328-38.912 38.912-77.312 48.128t-68.096-17.408l-7.168-7.168-11.264-11.264-11.264-11.264q-6.144-6.144-7.168-8.192-11.264-14.336-13.312-29.184t2.56-29.184 13.824-27.648 20.48-24.576q9.216-8.192 32.768-30.72l55.296-57.344q33.792-32.768 75.264-73.728t86.528-86.016q-49.152-49.152-93.696-93.184t-79.872-78.848-57.856-56.832-27.648-27.136q-26.624-26.624-27.136-52.736t17.92-52.736q8.192-10.24 23.552-24.064t21.504-17.92q30.72-20.48 55.296-17.92t49.152 28.16l31.744 31.744q23.552 23.552 58.368 57.344t78.336 76.288 90.624 88.576q38.912-38.912 76.288-75.776t69.632-69.12 58.368-57.856 43.52-43.008q24.576-23.552 53.248-31.232t55.296 12.8q1.024 1.024 6.656 5.12t11.264 9.216 10.752 9.728 7.168 5.632q27.648 26.624 27.136 57.856t-27.136 57.856q-18.432 18.432-45.568 46.08t-60.416 60.416-70.144 69.632l-77.824 77.824q37.888 36.864 74.24 72.192t67.584 66.048 56.32 56.32 41.472 41.984z" pId="3320"></path>
  </symbol>
  <symbol t="1660196520479" version="1.1" xmlns="http://www.w3.org/2000/svg" pId="2360" xmlns:xlink="http://www.w3.org/1999/xlink" viewBox="0 0 1024 1024" id="添加文件夹">
    <defs></defs>
    <path d="M831.6 575.6h-63.9v127.9H639.9v63.9h127.8v127.9h63.9V767.4h127.9v-63.9H831.6z" pId="2361"></path>
    <path d="M831.6 192.1H703.8c0-70.3-57.5-127.9-127.9-127.9H192.4c-70.3 0-127.9 57.5-127.9 127.9V767.5c0 70.3 57.5 127.9 127.9 127.9H576v-63.9H192.4c-35.2 0-63.9-28.7-63.9-63.9V192.1c0-35.2 28.7-63.9 63.9-63.9H576c35.2 0 63.9 28.7 63.9 63.9V256h191.8c35.2 0 63.9 28.7 63.9 63.9v191.8h63.9V319.9c0-70.3-57.5-127.8-127.9-127.8z" pId="2362"></path>
  </symbol>
  <symbol t="1660196497116" version="1.1" xmlns="http://www.w3.org/2000/svg" pId="2197" xmlns:xlink="http://www.w3.org/1999/xlink" viewBox="0 0 1024 1024" id="添加文件">
    <defs></defs>
    <path d="M426.666667 254.613333c23.5648 0 42.666667 14.327467 42.666666 32 0 17.672533-19.101867 32-42.666666 32H341.3376c-23.560533 0-42.666667-14.327467-42.666667-32 0-17.672533 19.106133-32 42.666667-32h85.333333z m0 170.257067c23.5648 0 42.666667 14.327467 42.666666 32 0 17.672533-19.101867 32-42.666666 32H341.333333c-23.560533 0-42.6624-14.327467-42.6624-32 0-17.672533 19.101867-32 42.666667-32H426.666667z m435.170133 131.886933c-23.560533 0-29.866667-19.101867-29.866667-42.666666V166.4a17.066667 17.066667 0 0 0-17.066666-17.066667H209.066667a17.066667 17.066667 0 0 0-17.066667 17.066667v691.2a17.066667 17.066667 0 0 0 17.066667 17.066667h260.258133c23.560533 0 42.666667 6.301867 42.666667 29.866666s-19.106133 34.133333-42.666667 34.133334H213.329067C166.203733 938.666667 128 900.462933 128 853.333333V170.666667c0-47.1296 38.203733-85.333333 85.333333-85.333334h597.307734c47.125333 0 85.329067 38.203733 85.329066 85.333334v343.424c0 23.5648-10.568533 42.666667-34.133333 42.666666z" pId="2198"></path>
    <path d="M716.8 755.2v-83.2a32 32 0 1 1 64 0V755.2h83.2a32 32 0 1 1 0 64H780.8v87.466667a32 32 0 1 1-64 0V819.2h-87.466667a32 32 0 1 1 0-64H716.8z" pId="2199"></path>
  </symbol>
</svg>